<?xml version="1.0" standalone="no"?><!DOCTYPE svg PUBLIC "-//W3C//DTD SVG 1.1//EN" "http://www.w3.org/Graphics/SVG/1.1/DTD/svg11.dtd"><svg t="1523070403056" class="icon" style="" viewBox="0 0 1024 1024" version="1.1" xmlns="http://www.w3.org/2000/svg" p-id="7116" xmlns:xlink="http://www.w3.org/1999/xlink" width="32" height="32"><defs><style type="text/css"></style></defs><path d="M521.152 511.936m-416 0a416 416 0 1 0 832 0 416 416 0 1 0-832 0Z" fill="#AEECFF" p-id="7117"></path><path d="M733.376 205.056l-44.608-44.224L111.936 434.56s-21.44 80.192 2.752 177.408c166.976-107.968 503.552-330.688 618.688-406.912zM653.568 308.416L373.312 557.312l93.376 57.408 232-273.408zM731.904 351.872l-116.352 282.88h104l56-266.816zM818.688 331.136v324.864l100.672-23.616-60.992-301.696z" fill="#E3FAFF" p-id="7118"></path><path d="M774.208 241.216m-145.216 0a145.216 145.216 0 1 0 290.432 0 145.216 145.216 0 1 0-290.432 0Z" fill="#FFFF5F" p-id="7119"></path><path d="M521.088 928c108.16 0 206.4-41.6 280.32-109.312a110.08 110.08 0 0 0-27.648-47.552L447.808 445.12a112.512 112.512 0 0 0-158.656 0L118.656 615.552c46.144 179.584 208.576 312.448 402.432 312.448z" fill="#66BF47" p-id="7120"></path><path d="M316.736 874.048a413.504 413.504 0 0 0 204.352 53.952 415.808 415.808 0 0 0 400.256-303.744l-101.632-101.568a112.512 112.512 0 0 0-158.656 0l-325.952 326.016c-7.616 7.616-13.44 16.32-18.368 25.344z" fill="#3FB018" p-id="7121"></path><path d="M521.088 928a413.76 413.76 0 0 0 186.432-44.48l-221.248-221.184a128.32 128.32 0 0 0-180.992 0l-109.056 109.056A414.848 414.848 0 0 0 521.088 928z" fill="#5AA93E" p-id="7122"></path></svg>